# AST/ASF file generated using VICON BodyLanguage
# -----------------------------------------------
:version 1.10
:name VICON
:units
  mass 1.0
  length 0.45
  angle deg
:documentation
   .ast/.asf automatically generated from VICON data using
   VICON BodyBuilder and BodyLanguage model FoxedUp or BRILLIANT.MOD
:root
   order TX TY TZ RX RY RZ
   axis XYZ
   position 0 0 0  
   orientation 0 0 0 
:bonedata
  begin
     id 1 
     name lhipjoint
     direction 0.722297 -0.617336 0.311742 
     length 2.6635 
     axis 0 0 0  XYZ
  end
  begin
     id 2 
     name lfemur
     direction 0.34202 -0.939693 0  
     length 7.39349  
     axis 0 0 20  XYZ
    dof rx ry rz
    limits (-160.0 20.0)
           (-70.0 70.0)
           (-60.0 70.0)
  end
  begin
     id 3 
     name ltibia
     direction 0.34202 -0.939693 0   
     length 7.36294   
     axis 0 0 20   XYZ
    dof rx
    limits (-10.0 170.0)
  end
  begin
     id 4 
     name lfoot
     direction 0.104879 -0.288152 0.951824   
     length 2.16981   
     axis -90 7.62852e-016 20   XYZ
    dof rx rz
    limits (-45.0 90.0)
           (-70.0 20.0)
  end
  begin
     id 5 
     name ltoes
     direction 1.53586e-011 -4.21895e-011 1   
     length 1.08218   
     axis -90 7.62852e-016 20   XYZ
    dof rx
    limits (-90.0 20.0)
  end
  begin
     id 6 
     name rhipjoint
     direction -0.75102 -0.589393 0.297631   
     length 2.78977  
     axis 0 0 0  XYZ 
  end
  begin
     id 7 
     name rfemur
     direction -0.34202 -0.939693 0   
     length 7.46076   
     axis 0 0 -20   XYZ
    dof rx ry rz
    limits (-160.0 20.0)
           (-70.0 70.0)
           (-70.0 60.0)
  end
  begin
     id 8 
     name rtibia
     direction -0.34202 -0.939693 0   
     length 7.31726   
     axis 0 0 -20   XYZ
    dof rx
    limits (-10.0 170.0)
 end
 begin
     id 9 
     name rfoot
     direction -0.107991 -0.296704 0.948844   
     length 2.09388  
     axis -90 -7.62852e-016 -20   XYZ
    dof rx rz
    limits (-45.0 90.0)
           (-20.0 70.0)
  end
  begin
     id 10 
     name rtoes
     direction -1.53559e-011 -4.21911e-011 1   
     length 1.04433   
     axis -90 -7.62852e-016 -20   XYZ
    dof rx
    limits (-90.0 20.0)
  end
  begin
     id 11 
     name lowerback
     direction 0.0165164 0.98272 0.184358   
     length 1.71896   
     axis 0 0 0   XYZ
    dof rx ry rz
    limits (-20.0 45.0)
           (-30.0 30.0)
           (-30.0 30.0)
  end
  begin
     id 12 
     name upperback
     direction -0.00887249 0.992297 0.123566   
     length 1.71504   
     axis 0 0 0   XYZ
    dof rx ry rz
    limits (-20.0 45.0)
           (-30.0 30.0)
           (-30.0 30.0)
  end
  begin
     id 13 
     name thorax
     direction -0.0157026 0.998908 0.0440032   
     length 1.77022   
     axis 0 0 0   XYZ
    dof rx ry rz
    limits (-20.0 45.0)
           (-30.0 30.0)
           (-30.0 30.0)
  end
  begin
     id 14 
     name lowerneck
     direction -0.0238856 0.998137 0.0561411   
     length 1.89341   
     axis 0 0 0   XYZ
    dof rx ry rz
    limits (-20.0 45.0)
           (-30.0 30.0)
           (-30.0 30.0)
  end
  begin
     id 15 
     name upperneck
     direction 0.0276574 0.952253 -0.304056   
     length 1.86999   
     axis 0 0 0   XYZ
    dof rx ry rz
    limits (-20.0 45.0)
           (-30.0 30.0)
           (-30.0 30.0)
  end
  begin
     id 16
     name head
     direction 0.00800083 0.994258 -0.106712  
     length 1.91492  
     axis 0 0 0   XYZ
    dof rx ry rz
    limits (-20.0 45.0)
           (-30.0 30.0)
           (-30.0 30.0)
  end
  begin
     id 17 
     name lclavicle
     direction 0.97203 0.225407 0.06595  
     length 3.34889  
     axis 0 0 0   XYZ
    dof ry rz
    limits (-20.0 10.0)
           (0.0 20.0)
  end
  begin
     id 18 
     name lhumerus
     direction 1 -4.48973e-011 2.20267e-027   
     length 4.85645   
     axis 180 -30 -90   XYZ
    dof rx ry rz
    limits (-60.0 90.0)
           (-90.0 90.0)
           (-90.0 90.0)
  end
  begin
     id 19
     name lradius
     direction 1 -4.4897e-011 4.60472e-027   
     length 2.79874   
     axis 180 -30 -90   XYZ
    dof rx
    limits (-10.0 170.0)
  end
  begin
     id 20
     name lwrist
     direction 1 -4.48952e-011 1.14928e-026   
     length 1.39937   
     axis -6.29373e-015 90 90   XYZ
    dof ry
    limits (-180.0 0.0)
 end
  begin
     id 21 
     name lhand
     direction 1 -4.48967e-011 2.29886e-026   
     length 0.573398   
     axis -1.46689e-014 90 90   XYZ
    dof rx rz
    limits (-90.0 90.0)
           (-45.0 45.0)
  end
  begin
     id 22 
     name lfingers
     direction 1 -4.48955e-011 4.59726e-026   
     length 0.462289   
     axis -2.93383e-014 90 90   XYZ
    dof rx
    limits (0.0 90.0)
  end
  begin
     id 23
     name lthumb
     direction 0.707107 -6.34866e-011 0.707107   
     length 0.663757   
     axis -90 45 5.69224e-014   XYZ
    dof rx rz
    limits (-45.0 45.0)
           (-45.0 45.0)
  end
  begin
     id 24 
     name rclavicle
     direction -0.981571 0.157346 0.108443   
     length 3.35257  
     axis 0 0 0   XYZ 
    dof ry rz
    limits (-10.0 20.0)
           (-20.0 0.0)
  end
  begin
     id 25 
     name rhumerus
     direction -1 -4.48967e-011 8.58308e-029  
     length 4.67018   
     axis 180 30 90   XYZ
    dof rx ry rz
    limits (-90.0 60.0)
           (-90.0 90.0)
           (-90.0 90.0)
  end
  begin
     id 26 
     name rradius
     direction -1 -4.48958e-011 4.52548e-027   
     length 2.65534   
     axis 180 30 90   XYZ
    dof rx
    limits (-10.0 170.0)
  end
  begin
     id 27 
     name rwrist
     direction -1 -4.48977e-011 1.14952e-026   
     length 1.32767   
     axis -6.29373e-015 -90 -90   XYZ
    dof ry
    limits (-180.0 0.0)
  end
  begin
     id 28
     name rhand
     direction -1 -4.48924e-011 2.29804e-026   
     length 0.594069   
     axis -1.46689e-014 -90 -90   XYZ
    dof rx rz
    limits (-90.0 90.0)
           (-45.0 45.0)
  end
  begin
     id 29
     name rfingers
     direction -1 -4.48998e-011 4.59888e-026   
     length 0.478954   
     axis -2.93383e-014 -90 -90   XYZ
    dof rx
    limits (0.0 90.0)
  end
  begin
     id 30
     name rthumb
     direction -0.707107 -6.34933e-011 0.707107   
     length 0.687685   
     axis -90 -45 -5.69224e-014   XYZ
    dof rx rz
    limits (-45.0 45.0)
           (-45.0 45.0)
  end
:hierarchy
  begin
    root lhipjoint rhipjoint lowerback
    lhipjoint lfemur
    lfemur ltibia
    ltibia lfoot
    lfoot ltoes
    rhipjoint rfemur
    rfemur rtibia
    rtibia rfoot
    rfoot rtoes
    lowerback upperback
    upperback thorax
    thorax lowerneck lclavicle rclavicle
    lowerneck upperneck
    upperneck head
    lclavicle lhumerus
    lhumerus lradius
    lradius lwrist
    lwrist lhand lthumb
    lhand lfingers
    rclavicle rhumerus
    rhumerus rradius
    rradius rwrist
    rwrist rhand rthumb
    rhand rfingers
  end

#!OML:ASF E:\pregnant2\Project 1\Capture day 1\Session 1\pregnant2.ASF
:FULLY-SPECIFIED
:DEGREES
1191
root -4.35115 17.3978 19.9843 26.9845 4.27938 1.29013
lowerback -18.5656 0.189255 0.407437
upperback -14.463 0.251213 -0.103092
thorax -5.26496 0.112836 -0.306982
lowerneck -15.1445 -4.6385 -7.85362
upperneck 34.0595 -5.48503 2.77345
head 14.6027 -3.00683 1.57635
rclavicle 1.09332e-015 6.16232e-015
rhumerus -1.83528 -14.3298 -36.9
rradius 73.6
rwrist 2.19983
rhand -36.29 -36.6726
rfingers 7.12502
rthumb -9.3896 -66.4434
lclavicle 1.09332e-015 6.16232e-015
lhumerus -16.0958 29.4645 41.9621
lradius 72.0787
lwrist 41.132
lhand -38.2533 49.5751
lfingers 7.12502
lthumb -11.2836 79.2516
rfemur -38.8912 18.0304 7.95633
rtibia 29.1787
rfoot -19.8251 -29.9231
rtoes 4.63438
lfemur -35.6523 -8.86943 -15.1916
ltibia 23.4486
lfoot -11.6533 18.3734
ltoes -3.54921
1192
root -4.35228 17.3977 19.9855 26.976 4.26014 1.28645
lowerback -18.5846 0.189302 0.366929
upperback -14.4705 0.257017 -0.0833838
thorax -5.26391 0.120131 -0.262424
lowerneck -15.1258 -4.61719 -7.84339
upperneck 34.0926 -5.43653 2.7137
head 14.608 -2.99333 1.559
rclavicle 2.03754e-015 5.1684e-015
rhumerus -1.53642 -14.3605 -36.9871
rradius 75.2091
rwrist -2.06416
rhand -35.1795 -37.8937
rfingers 7.12502
rthumb -8.31796 -67.7099
lclavicle 2.03754e-015 5.1684e-015
lhumerus -15.8683 30.066 41.8974
lradius 74.2408
lwrist 47.4202
lhand -39.3765 49.0397
lfingers 7.12502
lthumb -12.3666 78.654
rfemur -38.8852 18.0628 7.95146
rtibia 29.1747
rfoot -19.8312 -29.9289
rtoes 4.65276
lfemur -35.64 -8.86731 -15.1883
ltibia 23.4575
lfoot -11.6589 18.3971
ltoes -3.55648
1193
root -4.35335 17.3976 19.9867 26.9646 4.24608 1.28098
lowerback -18.6024 0.189067 0.329468
upperback -14.4779 0.262117 -0.0631135
thorax -5.26345 0.126873 -0.219072
lowerneck -15.1052 -4.598 -7.83579
upperneck 34.1229 -5.39115 2.65588
head 14.612 -2.98126 1.54235
rclavicle 1.66979e-014 4.96962e-015
rhumerus -1.24497 -14.4211 -37.0822
rradius 76.8274
rwrist -6.51676
rhand -33.8625 -38.7112
rfingers 7.12502
rthumb -7.04686 -68.5739
lclavicle 1.66979e-014 4.96962e-015
lhumerus -15.6711 30.6266 41.8286
lradius 76.2639
lwrist 52.8474
lhand -39.8908 48.2882
lfingers 7.12502
lthumb -12.8625 77.8718
rfemur -38.8707 18.0555 7.96946
rtibia 29.1706
rfoot -19.8162 -29.9036
rtoes 4.64027
lfemur -35.6259 -8.86637 -15.1827
ltibia 23.4676
lfoot -11.6667 18.4168
ltoes -3.55637
1194
root -4.35444 17.3975 19.9879 26.9497 4.23496 1.27515
lowerback -18.6165 0.18805 0.290541
upperback -14.4855 0.266446 -0.0423327
thorax -5.26519 0.133381 -0.174468
lowerneck -15.0845 -4.58037 -7.82812
upperneck 34.1532 -5.34853 2.59908
head 14.6162 -2.97023 1.52561
rclavicle -1.29707e-014 -5.56597e-015
rhumerus -0.967424 -14.5162 -37.1808
rradius 78.425
rwrist -11.078
rhand -32.3722 -39.1182
rfingers 7.12502
rthumb -5.60808 -69.024
lclavicle -1.29707e-014 -5.56597e-015
lhumerus -15.4959 31.0881 41.7741
lradius 78.1241
lwrist 57.2653
lhand -39.77 47.469
lfingers 7.12502
lthumb -12.7461 77.0599
rfemur -38.8508 18.0403 7.99394
rtibia 29.1672
rfoot -19.8004 -29.8725
rtoes 4.62564
lfemur -35.6086 -8.86449 -15.1773
ltibia 23.4781
lfoot -11.6768 18.4323
ltoes -3.54892
1195
root -4.3555 17.3974 19.9892 26.9327 4.22715 1.26928
lowerback -18.6298 0.188652 0.253345
upperback -14.4929 0.27267 -0.0249522
thorax -5.26698 0.140562 -0.134207
lowerneck -15.0625 -4.56808 -7.8201
upperneck 34.1804 -5.31525 2.54541
head 14.6195 -2.96271 1.50846
rclavicle 7.05686e-015 9.54166e-015
rhumerus -0.706484 -14.6755 -37.2849
rradius 79.972
rwrist -15.636
rhand -30.6044 -39.16
rfingers 7.12502
rthumb -3.90116 -69.104
lclavicle 7.05686e-015 9.54166e-015
lhumerus -15.3268 31.4061 41.7484
lradius 79.8109
lwrist 60.6126
lhand -39.0479 46.7242
lfingers 7.12502
lthumb -12.0498 76.3572
rfemur -38.8262 18.0174 8.024
rtibia 29.1643
rfoot -19.7829 -29.8375
rtoes 4.60635
lfemur -35.5889 -8.86462 -15.1713
ltibia 23.4889
lfoot -11.6898 18.4446
ltoes -3.53519
